HIERARCHY
ROOT Hips
{
	OFFSET 0.000000 0.000000 0.000000
	CHANNELS 6 Xposition Yposition Zposition Xrotation Yrotation Zrotation
	JOINT LeftUpLeg_virtual
	{
		OFFSET 0.000000 0.000000 0.000000
		CHANNELS 3 Xrotation Yrotation Zrotation
		JOINT LeftUpLeg
		{
			OFFSET 15.427100 -6.655098 0.678600
			CHANNELS 3 Xrotation Yrotation Zrotation
			JOINT LeftLeg
			{
				OFFSET 4.081073 -39.591068 13.024000
				CHANNELS 3 Xrotation Yrotation Zrotation
				JOINT LeftFoot
				{
					OFFSET -4.081074 -37.707932 -15.979700
					CHANNELS 3 Xrotation Yrotation Zrotation
					JOINT LeftToeBase
					{
						OFFSET 5.346399 -15.068900 20.645000
						CHANNELS 3 Xrotation Yrotation Zrotation
						JOINT LeftToe_End
						{
							OFFSET 2.754700 0.931300 11.300900
							CHANNELS 3 Xrotation Yrotation Zrotation
							End Site
							{
								OFFSET 0 0 0
							}
						}
					}
				}
			}
		}
	}
	JOINT RightUpLeg_virtual
	{
		OFFSET 0.000000 0.000000 0.000000
		CHANNELS 3 Xrotation Yrotation Zrotation
		JOINT RightUpLeg
		{
			OFFSET -15.569500 -6.655098 0.678600
			CHANNELS 3 Xrotation Yrotation Zrotation
			JOINT RightLeg
			{
				OFFSET -4.081825 -39.591045 13.023800
				CHANNELS 3 Xrotation Yrotation Zrotation
				JOINT RightFoot
				{
					OFFSET 4.081824 -37.707954 -15.979600
					CHANNELS 3 Xrotation Yrotation Zrotation
					JOINT RightToeBase
					{
						OFFSET -5.346400 -15.068900 20.645000
						CHANNELS 3 Xrotation Yrotation Zrotation
						JOINT RightToe_End
						{
							OFFSET -2.754700 0.931300 11.300900
							CHANNELS 3 Xrotation Yrotation Zrotation
							End Site
							{
								OFFSET 0 0 0
							}
						}
					}
				}
			}
		}
	}
	JOINT Spine_virtual
	{
		OFFSET 0.000000 0.000000 0.000000
		CHANNELS 3 Xrotation Yrotation Zrotation
		JOINT Spine
		{
			OFFSET -0.279200 12.230698 -2.892100
			CHANNELS 3 Xrotation Yrotation Zrotation
			JOINT Spine1
			{
				OFFSET -0.232667 10.192268 -1.242267
				CHANNELS 3 Xrotation Yrotation Zrotation
				JOINT Spine1_split
				{
					OFFSET -0.232667 10.192268 -1.242267
					CHANNELS 3 Xrotation Yrotation Zrotation
					JOINT Spine2
					{
						OFFSET -0.232667 10.192268 -1.242267
						CHANNELS 3 Xrotation Yrotation Zrotation
						JOINT Neck_virtual
						{
							OFFSET 0.000000 0.000000 0.000000
							CHANNELS 3 Xrotation Yrotation Zrotation
							JOINT Neck
							{
								OFFSET -0.418800 17.814194 8.416900
								CHANNELS 3 Xrotation Yrotation Zrotation
								JOINT Head
								{
									OFFSET 0.000000 7.031097 3.806800
									CHANNELS 3 Xrotation Yrotation Zrotation
									JOINT HeadTop_End
									{
										OFFSET 0.000000 24.646606 12.978600
										CHANNELS 3 Xrotation Yrotation Zrotation
										End Site
										{
											OFFSET 0 0 0
										}
									}
								}
							}
						}
						JOINT LeftShoulder_virtual
						{
							OFFSET 0.000000 0.000000 0.000000
							CHANNELS 3 Xrotation Yrotation Zrotation
							JOINT LeftShoulder
							{
								OFFSET 8.476499 7.247704 -3.868750
								CHANNELS 3 Xrotation Yrotation Zrotation
								JOINT LeftShoulder_split
								{
									OFFSET 8.476499 7.247704 -3.868750
									CHANNELS 3 Xrotation Yrotation Zrotation
									JOINT LeftArm
									{
										OFFSET 9.308998 -2.777710 0.208600
										CHANNELS 3 Xrotation Yrotation Zrotation
										JOINT LeftForeArm
										{
											OFFSET 29.972298 0.000000 0.000000
											CHANNELS 3 Xrotation Yrotation Zrotation
											JOINT LeftHand
											{
												OFFSET 26.026505 0.000000 0.000000
												CHANNELS 3 Xrotation Yrotation Zrotation
												End Site
												{
													OFFSET 0 0 0
												}
											}
										}
									}
								}
							}
						}
						JOINT RightShoulder_virtual
						{
							OFFSET 0.000000 0.000000 0.000000
							CHANNELS 3 Xrotation Yrotation Zrotation
							JOINT RightShoulder
							{
								OFFSET -7.570500 7.247704 -3.868750
								CHANNELS 3 Xrotation Yrotation Zrotation
								JOINT RightShoulder_split
								{
									OFFSET -7.570500 7.247704 -3.868750
									CHANNELS 3 Xrotation Yrotation Zrotation
									JOINT RightArm
									{
										OFFSET -9.308998 -2.777710 0.208500
										CHANNELS 3 Xrotation Yrotation Zrotation
										JOINT RightForeArm
										{
											OFFSET -29.972300 0.000000 0.000000
											CHANNELS 3 Xrotation Yrotation Zrotation
											JOINT RightHand
											{
												OFFSET -26.026505 0.000000 0.000000
												CHANNELS 3 Xrotation Yrotation Zrotation
												End Site
												{
													OFFSET 0 0 0
												}
											}
										}
									}
								}
							}
						}
					}
				}
			}
		}
	}
}
MOTION
Frames: 10
Frame Time: 0.03333333
4.248959 78.734650 -14.245594 0.000000 0.000000 0.000000 45.245041 7.059565 -5.634476 -86.469580 5.882491 22.468245 41.747421 8.425942 -4.743088 7.444385 15.339066 -8.826024 -0.395938 0.918176 -1.404134 0.000000 0.000000 0.000000 45.723916 6.637256 -4.059463 -38.319772 8.399633 -13.750466 62.470884 4.430578 -2.342765 0.160505 -2.737217 10.965607 -13.056436 1.613952 3.947811 0.000000 0.000000 0.000000 48.864355 -0.705311 -0.748316 12.649008 0.438304 -2.168343 11.511217 1.705113 -0.750517 -0.029694 2.321892 1.046577 0.000000 0.000000 0.000000 26.927054 1.220243 -0.743448 -23.042693 -4.921255 5.919153 -17.901472 5.051140 -7.159713 0.000000 0.000000 0.000000 25.637436 2.363614 -0.394905 4.025435 -2.902654 7.459366 7.495280 -19.968565 -5.016043 -34.201568 -45.554018 -33.347248 2.255372 -46.537279 3.460468 0.000000 0.000000 0.000000 24.849849 0.994887 -0.092915 -2.317737 33.883441 11.695784 6.631391 9.536265 3.729259 -51.190714 22.221296 26.632904 2.652194 38.450437 -4.085855 0.000000 0.000000 0.000000 
4.022168 80.336433 -12.722084 0.000000 0.000000 0.000000 41.141866 4.435324 -4.132310 -80.472449 6.714852 21.056018 39.036840 8.705488 -4.509032 6.769465 16.446035 -9.548721 -0.320729 1.032594 -1.813529 0.000000 0.000000 0.000000 41.556309 3.731221 -2.457580 -42.693631 9.807334 -13.048278 66.036373 4.322911 -2.252976 -3.029572 -2.831602 9.727530 -8.738456 2.000173 1.910382 0.000000 0.000000 0.000000 44.579569 -2.697110 -0.093423 13.111445 0.515657 -2.263628 11.585889 1.718180 -0.546918 -0.068100 2.193493 1.062211 0.000000 0.000000 0.000000 26.888602 1.196468 -0.540024 -22.558493 -4.696667 5.962983 -17.069532 5.863620 -6.556187 0.000000 0.000000 0.000000 25.457298 2.297244 -0.200750 3.981904 -2.259139 6.015189 6.189249 -20.200764 -4.711418 -32.698496 -44.318451 -34.849514 1.915999 -46.135739 2.980524 0.000000 0.000000 0.000000 24.684341 0.978146 0.033548 -2.417168 32.920398 12.270753 7.226514 9.352970 4.459252 -49.495994 22.037243 29.450335 2.816245 37.103367 -4.692258 0.000000 0.000000 0.000000 
3.749576 81.755959 -11.131573 0.000000 0.000000 0.000000 37.217899 1.915066 -2.825110 -74.535191 7.371863 19.792275 36.579618 8.796514 -4.233831 5.809849 16.910968 -10.150116 -0.747338 1.090940 -1.983323 0.000000 0.000000 0.000000 37.514630 0.734017 -0.947452 -45.994566 11.179848 -12.523744 66.854930 4.386138 -2.357488 -4.654547 -2.295542 9.259321 -7.717819 1.898155 0.845950 0.000000 0.000000 0.000000 40.536121 -4.525181 0.485559 13.390144 0.531174 -2.400627 11.608777 1.779662 -0.344325 -0.146046 2.006543 1.159044 0.000000 0.000000 0.000000 26.774840 1.233673 -0.382888 -21.977481 -4.476637 5.890202 -16.305816 6.543253 -6.061175 0.000000 0.000000 0.000000 25.209316 2.302051 -0.011042 3.919580 -1.676224 4.493747 4.844728 -20.041394 -4.527511 -31.266987 -42.943483 -36.555101 1.473852 -44.932205 2.419759 0.000000 0.000000 0.000000 24.448380 1.032872 0.141500 -2.390306 31.830177 12.573214 7.875165 9.015414 5.032325 -47.849092 21.624698 31.859837 2.816354 35.487392 -5.154760 0.000000 0.000000 0.000000 
3.429747 83.023941 -9.533592 0.000000 0.000000 0.000000 33.610039 -0.296089 -1.907428 -68.881884 8.013400 19.002594 34.452768 8.796451 -4.037966 4.839757 16.909889 -10.452876 -0.712868 1.093570 -2.005513 0.000000 0.000000 0.000000 33.631869 -1.943637 0.140587 -47.906619 12.247226 -12.293184 64.730174 4.346622 -2.405851 -5.420093 -1.523655 8.773369 -7.799485 1.516703 0.758186 0.000000 0.000000 0.000000 36.815379 -6.194245 0.897007 13.505339 0.498050 -2.535517 11.580364 1.883824 -0.132129 -0.208574 1.877683 1.274007 0.000000 0.000000 0.000000 26.571763 1.319271 -0.243011 -21.336599 -4.250376 5.718695 -15.509994 7.133969 -5.699167 0.000000 0.000000 0.000000 24.879589 2.362928 0.190536 3.850919 -1.191024 3.020905 3.808358 -19.664755 -4.396736 -29.901694 -41.571800 -38.363707 1.091415 -43.242235 1.914946 0.000000 0.000000 0.000000 24.144247 1.148933 0.255974 -2.249092 30.642045 12.636840 8.482948 8.478804 5.658474 -46.116044 20.892138 33.706198 2.679453 33.916496 -5.491224 0.000000 0.000000 0.000000 
3.017191 84.131668 -7.927395 0.000000 0.000000 0.000000 30.288679 -2.189536 -1.427910 -63.531804 8.760092 18.723743 32.477102 8.914251 -3.882177 3.704546 16.780380 -10.408571 0.003061 1.092663 -1.988204 0.000000 0.000000 0.000000 30.028677 -4.032856 0.606440 -48.427028 12.687910 -12.507889 60.280026 4.047234 -2.369636 -5.714632 -0.750342 8.123000 -7.936269 1.070193 1.265152 0.000000 0.000000 0.000000 33.385275 -7.510594 1.043128 13.533432 0.413579 -2.625456 11.509324 1.999623 0.083292 -0.269326 1.682337 1.383599 0.000000 0.000000 0.000000 26.265750 1.416082 -0.102112 -20.707646 -4.017566 5.478995 -14.545552 7.651617 -5.462767 0.000000 0.000000 0.000000 24.459852 2.434848 0.409511 3.783810 -0.891586 1.688152 2.868184 -19.071143 -4.298636 -28.568108 -40.338503 -40.146862 0.881838 -41.422075 1.566209 0.000000 0.000000 0.000000 23.773431 1.289389 0.390133 -2.024631 29.389498 12.539537 9.160682 7.746757 6.346723 -44.392080 19.785666 35.067837 2.413133 32.666889 -5.722469 0.000000 0.000000 0.000000 
2.499784 85.085564 -6.382584 0.000000 0.000000 0.000000 27.223377 -3.840537 -1.334754 -58.292898 9.694990 18.745060 30.507894 9.104924 -3.592270 2.382996 16.617005 -10.344035 1.029161 1.128594 -1.948660 0.000000 0.000000 0.000000 26.676135 -5.451853 0.563489 -48.136281 12.379469 -13.182347 54.607595 3.470906 -2.215759 -5.156063 -0.223054 7.913469 -8.114337 0.695950 1.937571 0.000000 0.000000 0.000000 30.141208 -8.555529 0.953652 13.499041 0.285497 -2.665806 11.420637 2.089127 0.273197 -0.214905 1.490379 1.414735 0.000000 0.000000 0.000000 25.877155 1.478625 0.040360 -20.161636 -3.767797 5.220480 -13.311190 8.135701 -5.293041 0.000000 0.000000 0.000000 23.981132 2.465161 0.641188 3.724369 -0.793032 0.605269 2.104293 -18.362566 -4.179248 -27.261665 -39.263213 -41.792281 0.874910 -39.704248 1.391567 0.000000 0.000000 0.000000 23.356672 1.399771 0.545996 -1.745047 28.108322 12.296163 9.897167 7.028875 7.202641 -42.799878 18.379108 36.082667 2.067523 31.804472 -5.885831 0.000000 0.000000 0.000000 
1.943553 85.833824 -4.939720 0.000000 0.000000 0.000000 24.241784 -5.180585 -1.516331 -53.056421 10.806833 18.834740 28.596832 9.099757 -3.096714 1.217939 16.241317 -10.845462 1.734757 1.220101 -1.828218 0.000000 0.000000 0.000000 23.491527 -6.349140 0.203142 -47.605975 11.511543 -14.182416 48.813938 3.088182 -2.102687 -3.699575 0.085208 8.719665 -8.427367 0.481269 2.401148 0.000000 0.000000 0.000000 26.887764 -9.236610 0.642373 13.442380 0.131565 -2.666084 11.333038 2.115496 0.421025 -0.134566 1.377864 1.342092 0.000000 0.000000 0.000000 25.430550 1.470403 0.180883 -19.673390 -3.485916 5.019709 -11.749816 8.590857 -5.135032 0.000000 0.000000 0.000000 23.487637 2.412087 0.864732 3.674346 -0.864327 -0.201842 1.365557 -17.555224 -4.065752 -25.952962 -38.360176 -43.225201 1.067587 -38.201893 1.364824 0.000000 0.000000 0.000000 22.891367 1.421387 0.700850 -1.432898 26.802769 11.917153 10.600880 6.426648 8.140283 -41.475747 16.861442 36.996246 1.668751 31.304010 -5.996395 0.000000 0.000000 0.000000 
1.417915 86.350998 -3.664948 0.000000 0.000000 0.000000 21.295029 -6.307195 -1.837601 -48.021957 11.847552 18.778413 26.834300 8.779529 -2.397456 0.432063 15.521361 -11.984123 1.804083 1.343588 -1.616760 0.000000 0.000000 0.000000 20.498952 -6.870508 -0.282941 -47.029944 10.202396 -15.197830 43.685473 2.974479 -2.191760 -1.811113 0.253211 10.648981 -8.805380 0.457718 2.513724 0.000000 0.000000 0.000000 23.598058 -9.618923 0.224186 13.355254 -0.056638 -2.609895 11.244957 2.057542 0.516191 -0.042694 1.399996 1.231254 0.000000 0.000000 0.000000 24.932299 1.368582 0.297156 -19.212019 -3.201732 4.920711 -9.899235 8.935155 -4.930400 0.000000 0.000000 0.000000 22.989035 2.254002 1.063208 3.632760 -1.084047 -0.749882 0.569706 -16.814232 -3.947095 -24.569111 -37.582621 -44.350266 1.341764 -36.929419 1.396765 0.000000 0.000000 0.000000 22.385002 1.335937 0.838804 -1.138486 25.519299 11.504964 11.255398 6.017094 9.060534 -40.506362 15.336703 37.990482 1.246901 31.055033 -6.066147 0.000000 0.000000 0.000000 
0.951012 86.651535 -2.619228 0.000000 0.000000 0.000000 18.429227 -7.158106 -2.176446 -43.377766 12.713563 18.502955 25.338043 8.259871 -1.535472 -0.143394 14.555237 -13.187937 1.697169 1.439647 -1.416617 0.000000 0.000000 0.000000 17.681073 -7.372977 -0.662067 -46.315854 8.663675 -15.982829 39.700092 2.894264 -2.418033 -0.176848 0.043949 12.688587 -8.880295 0.562398 2.437398 0.000000 0.000000 0.000000 20.246077 -9.793323 -0.257891 13.215826 -0.260392 -2.512799 11.153461 1.914066 0.558738 0.029466 1.572584 1.062234 0.000000 0.000000 0.000000 24.401887 1.179176 0.376318 -18.665328 -2.922678 4.954154 -7.857655 9.110517 -4.661703 0.000000 0.000000 0.000000 22.502878 2.004019 1.212597 3.600327 -1.397553 -1.087664 -0.234879 -16.229101 -3.801139 -23.091729 -36.855025 -45.149931 1.599160 -35.860317 1.405915 0.000000 0.000000 0.000000 21.849977 1.149355 0.937252 -0.896988 24.294684 11.173507 11.863543 5.727638 9.761227 -39.846466 13.924160 39.146874 0.821995 30.807493 -6.087626 0.000000 0.000000 0.000000 
0.517996 86.751846 -1.649967 0.000000 0.000000 0.000000 15.675836 -7.684293 -2.453566 -39.189655 13.339021 18.098338 24.019655 7.618548 -0.642868 -0.815170 13.532895 -14.108177 1.929167 1.504056 -1.303275 0.000000 0.000000 0.000000 15.013232 -7.798816 -0.897436 -45.260327 7.046144 -16.422626 36.945183 2.787217 -2.796329 0.631989 -0.551817 14.218132 -8.420817 0.739913 2.282530 0.000000 0.000000 0.000000 16.849923 -9.678396 -0.754045 12.997978 -0.461662 -2.360446 11.050327 1.709175 0.558983 0.080816 1.857511 1.006936 0.000000 0.000000 0.000000 23.845285 0.937038 0.405521 -17.932387 -2.668369 5.097973 -5.740377 9.061439 -4.375936 0.000000 0.000000 0.000000 22.005988 1.703068 1.302410 3.569037 -1.803283 -1.333178 -1.015481 -15.940678 -3.543738 -21.616070 -36.163075 -45.706345 1.771329 -34.946243 1.347342 0.000000 0.000000 0.000000 21.283926 0.904893 0.984377 -0.719777 23.145833 10.998085 12.431521 5.307283 10.182800 -39.452508 12.688594 40.457693 0.394475 30.439722 -6.062865 0.000000 0.000000 0.000000 
